PathFileType	4	(X/Y/Z)	S:\OneDrive - The University of Tokyo\ìåëÂéˆã∆\ÉoÉCÉÅÉJ\ë™íË\hirabayashi_2\Trimmed\Trimmed_BarL1Hirabayashi1.trc
DataRate	CameraRate	NumFrames	NumMarkers	Units	OrigDataRate	OrigDataStartFrame	OrigNumFrames
200.00	200.00	       22	12	mm	200.00	133	       265
Frame#	Time	BarR0			BarR50			BarR100			BarR130			BarR180			BarR230			BarL0			BarL50			BarL100			BarL130			BarL180			BarL230			
		X1	Y1	Z1	X2	Y2	Z2	X3	Y3	Z3	X4	Y4	Z4	X5	Y5	Z5	X6	Y6	Z6	X7	Y7	Z7	X8	Y8	Z8	X9	Y9	Z9	X10	Y10	Z10	X11	Y11	Z11	X12	Y12	Z12	

133	0.660	-576.82410	2755.39282	1663.88416	-604.35431	2305.97314	1662.53870	-637.70020	1851.73010	1661.87219	-661.25342	1349.24353	1661.64771	-690.41571	902.44897	1662.31665	-714.00665	454.45767	1663.82874	-1112.26147	2805.57251	1664.54504	-1139.14136	2354.34473	1648.87585	-1169.00330	1904.50928	1639.12000	-1196.85901	1404.07544	1638.10266	-1224.24683	953.36316	1649.26196	-1242.54333	507.44412	1667.10376	
134	0.665	-576.79565	2755.35791	1663.89282	-604.26154	2305.97412	1662.51782	-637.67224	1851.75928	1661.85010	-661.22351	1349.24829	1661.66113	-690.38153	902.46411	1662.29663	-714.00659	454.47409	1663.81885	-1112.26965	2805.54541	1664.55298	-1139.17285	2354.35059	1648.87378	-1169.01709	1904.51514	1639.10657	-1196.82361	1404.05005	1638.08459	-1224.24548	953.35559	1649.27771	-1242.52283	507.42892	1667.10376	
135	0.670	-576.79919	2755.35083	1663.86548	-604.27185	2305.95337	1662.55164	-637.66193	1851.72900	1661.81177	-661.20178	1349.22595	1661.64478	-690.38141	902.43854	1662.29883	-714.01752	454.46429	1663.82312	-1112.26990	2805.54688	1664.54651	-1139.18604	2354.34668	1648.86243	-1169.02271	1904.50732	1639.09900	-1196.87573	1404.06934	1638.03894	-1224.25464	953.34949	1649.24084	-1242.54016	507.43307	1667.09631	
136	0.675	-576.80457	2755.34814	1663.87585	-604.25043	2305.93823	1662.49512	-637.65271	1851.70605	1661.84167	-661.18848	1349.21118	1661.63745	-690.37610	902.42798	1662.28137	-714.03033	454.47003	1663.81824	-1112.26892	2805.56714	1664.54053	-1139.18982	2354.34375	1648.83008	-1169.08643	1904.52429	1639.05396	-1196.89099	1404.01624	1637.98413	-1224.27258	953.32910	1649.22961	-1242.50781	507.41846	1667.09351	
137	0.680	-576.28503	2755.28809	1664.33228	-605.63416	2306.25269	1662.14038	-637.66058	1851.70667	1661.81958	-661.20673	1349.17578	1661.64624	-690.40295	902.41742	1662.30115	-714.04797	454.45255	1663.80005	-1112.26428	2805.55176	1664.53967	-1139.20654	2354.36108	1648.80078	-1169.08716	1904.49927	1639.01331	-1196.89392	1404.04749	1637.92566	-1224.24280	953.35345	1649.16602	-1242.47937	507.43286	1667.09863	
138	0.685	-576.83191	2755.33350	1663.86609	-604.32123	2305.90161	1662.49866	-637.67163	1851.66296	1661.82007	-661.25183	1349.19116	1661.62183	-690.43036	902.40784	1662.27271	-714.06421	454.44406	1663.80200	-1112.28760	2805.54639	1664.56262	-1139.22888	2354.32739	1648.77197	-1169.10388	1904.49231	1638.96204	-1196.90991	1404.09814	1637.84473	-1224.24023	953.33661	1649.11450	-1242.44592	507.42340	1667.08264	
139	0.690	-576.29022	2755.26147	1664.35449	-605.65430	2306.21875	1662.11780	-637.72455	1851.67004	1661.82190	-661.31506	1349.21301	1661.62732	-690.45392	902.40363	1662.28760	-714.10101	454.41327	1663.80530	-1112.28015	2805.52563	1664.54419	-1139.23096	2354.31958	1648.73572	-1169.15747	1904.51599	1638.89722	-1196.92322	1404.04736	1637.77686	-1224.22791	953.34509	1649.05432	-1242.45251	507.39700	1667.08557	
140	0.695	-576.30408	2755.23779	1664.36816	-605.68530	2306.25464	1662.13928	-637.76807	1851.70605	1661.84143	-661.36353	1349.19934	1661.62549	-690.48053	902.42188	1662.27185	-714.12262	454.41602	1663.81787	-1112.26428	2805.47461	1664.54468	-1139.22888	2354.31128	1648.70276	-1169.19434	1904.50513	1638.86829	-1196.94507	1404.10083	1637.70935	-1224.23572	953.33478	1649.01428	-1242.43579	507.37552	1667.07141	
141	0.700	-576.31848	2755.26270	1664.34924	-605.73767	2306.19727	1662.13672	-637.81445	1851.67004	1661.82520	-661.41968	1349.23157	1661.61633	-690.48761	902.40326	1662.29016	-714.12848	454.44870	1663.80554	-1112.26636	2805.45190	1664.54077	-1139.20447	2354.29980	1648.65662	-1169.21655	1904.48828	1638.80920	-1196.98291	1404.07642	1637.62292	-1224.22717	953.31226	1648.95154	-1242.42773	507.38232	1667.06482	
142	0.705	-576.89648	2755.33862	1663.86523	-604.44025	2305.88745	1662.51050	-637.87421	1851.70825	1661.81897	-661.47241	1349.20374	1661.61877	-690.52710	902.39325	1662.27686	-714.12524	454.44534	1663.80920	-1112.26294	2805.44360	1664.54517	-1139.20361	2354.29028	1648.63782	-1169.23047	1904.47742	1638.75525	-1197.00037	1404.05725	1637.56213	-1224.23047	953.32141	1648.87781	-1242.44604	507.40063	1667.07581	
143	0.710	-576.87476	2755.30420	1663.87720	-604.41656	2305.91406	1662.53235	-637.83533	1851.72083	1661.83020	-661.44037	1349.21033	1661.62463	-690.51178	902.41602	1662.29163	-714.11115	454.44781	1663.80981	-1112.27075	2805.44482	1664.52759	-1139.21655	2354.28687	1648.61157	-1169.23694	1904.53552	1638.35327	-1196.97156	1404.09229	1637.51208	-1224.26477	953.32635	1648.85962	-1242.43884	507.36783	1667.08228	
144	0.715	-576.87000	2755.33960	1663.87488	-604.38812	2305.94141	1662.49536	-637.86761	1851.74353	1661.82483	-661.42010	1349.21423	1661.63892	-690.51459	902.41888	1662.28809	-714.08948	454.47025	1663.80688	-1112.27942	2805.43311	1664.54724	-1139.23242	2354.28760	1648.58911	-1169.21692	1904.52881	1638.33435	-1197.00842	1404.08301	1637.44763	-1224.28748	953.33917	1648.82129	-1242.45764	507.37128	1667.07825	
145	0.720	-576.29865	2755.29736	1664.35803	-605.73706	2306.25073	1662.16577	-637.83026	1851.73987	1661.84033	-661.39813	1349.23730	1661.64685	-690.47388	902.44727	1662.32703	-714.08197	454.45062	1663.80627	-1112.26294	2805.43335	1664.54358	-1139.24353	2354.29150	1648.57129	-1169.33020	1904.58325	1638.30676	-1197.02466	1404.09412	1637.39185	-1224.29993	953.34265	1648.79419	-1242.47705	507.40591	1667.08069	
146	0.725	-576.29279	2755.29443	1664.36768	-605.66315	2306.23828	1662.14575	-637.75378	1851.71753	1661.83264	-661.32471	1349.25537	1661.64758	-690.45746	902.42603	1662.29834	-714.07501	454.45932	1663.80383	-1112.24597	2805.45605	1664.54553	-1139.26501	2354.28906	1648.56409	-1169.29272	1904.48889	1638.27258	-1197.04602	1404.11792	1637.35034	-1224.31494	953.36011	1648.79175	-1242.47803	507.42902	1667.09973	
147	0.730	-576.84406	2755.33887	1663.86963	-604.34167	2305.94141	1662.50720	-637.69183	1851.68787	1661.84058	-661.29358	1349.23718	1661.64148	-690.44324	902.39294	1662.29382	-714.04602	454.43808	1663.82373	-1112.26819	2805.43848	1664.56067	-1139.26208	2354.27466	1648.53210	-1169.32227	1904.55432	1638.25293	-1197.07031	1404.13513	1637.32556	-1224.32483	953.35126	1648.75391	-1242.50317	507.43848	1667.09412	
148	0.735	-576.82404	2755.33105	1663.86450	-604.29474	2305.93311	1662.50159	-637.65717	1851.70203	1661.82617	-661.23059	1349.21045	1661.63770	-690.39923	902.44849	1662.30103	-714.04413	454.46161	1663.80713	-1112.25659	2805.44678	1664.56165	-1139.30518	2354.30151	1648.53174	-1169.31055	1904.58264	1638.24414	-1197.05737	1404.14075	1637.28296	-1224.34106	953.38135	1648.74426	-1242.52832	507.46500	1667.09607	
149	0.740	-576.28021	2755.27393	1664.35815	-605.67133	2306.26685	1662.14954	-637.65350	1851.67029	1661.79395	-661.18219	1349.20703	1661.62708	-690.39050	902.40076	1662.29443	-714.04907	454.44955	1663.81384	-1112.26685	2805.44995	1664.55054	-1139.31140	2354.29932	1648.51489	-1169.33154	1904.54517	1638.20630	-1197.08887	1404.10815	1637.26526	-1224.34180	953.37427	1648.70215	-1242.51062	507.48489	1667.08801	
150	0.745	-576.81213	2755.33765	1663.87488	-604.22021	2305.93115	1662.50195	-637.63220	1851.70911	1661.84521	-661.17865	1349.21729	1661.60852	-690.37817	902.40863	1662.29443	-714.05042	454.45493	1663.80469	-1112.25708	2805.43164	1664.54419	-1139.30518	2354.31641	1648.47937	-1169.29382	1904.54712	1638.20215	-1197.04907	1404.12305	1637.23071	-1224.34192	953.36182	1648.69006	-1242.49329	507.47519	1667.09070	
151	0.750	-576.29901	2755.28198	1664.35510	-605.58337	2306.22559	1662.11414	-637.64771	1851.73242	1661.83081	-661.21387	1349.21521	1661.60461	-690.39746	902.41553	1662.29797	-714.06909	454.45584	1663.80994	-1112.28345	2805.46875	1664.55066	-1139.34497	2354.30273	1648.48755	-1169.36560	1904.58716	1638.17163	-1197.06177	1404.11121	1637.17627	-1224.33362	953.38092	1648.67468	-1242.50708	507.46524	1667.08887	
152	0.755	-576.30139	2755.27295	1664.35742	-605.61066	2306.25146	1662.12146	-637.68524	1851.66187	1661.82129	-661.25757	1349.18933	1661.60986	-690.42426	902.40179	1662.30640	-714.06940	454.46002	1663.80652	-1112.26843	2805.44409	1664.55579	-1139.31274	2354.30005	1648.45667	-1169.26282	1904.51575	1638.13513	-1197.01746	1404.11328	1636.99951	-1224.31946	953.40253	1648.63452	-1242.46643	507.46439	1667.08423	
153	0.760	-576.82703	2755.32251	1663.86206	-604.31708	2305.90283	1662.50403	-637.71783	1851.72595	1661.81213	-661.29602	1349.23755	1661.61133	-690.45288	902.39423	1662.28589	-714.06946	454.46606	1663.81934	-1112.26611	2805.43066	1664.53381	-1139.28516	2354.29761	1648.43384	-1169.27258	1904.46680	1638.12585	-1197.01404	1404.09485	1636.96106	-1224.28174	953.38336	1648.62769	-1242.45471	507.48145	1667.08630	
154	0.765	-576.83105	2755.33301	1663.88147	-604.37653	2305.94971	1662.49268	-637.78564	1851.70801	1661.83679	-661.34784	1349.23889	1661.61890	-690.47968	902.43549	1662.28870	-714.08643	454.46317	1663.81323	-1112.26233	2805.42676	1664.53918	-1139.26453	2354.29370	1648.41895	-1169.25940	1904.47559	1638.09570	-1196.94775	1404.06848	1636.91711	-1224.25549	953.36273	1648.61340	-1242.44238	507.47046	1667.07910	
